<?xml version="1.0" encoding="UTF-8"?>
<svg xmlns="http://www.w3.org/2000/svg" xmlns:xlink="http://www.w3.org/1999/xlink" width="854" height="480" viewBox="0 0 854 480">
<defs>
<g>
<g id="glyph-0-0">
<path d="M 1.648438 -2.472656 L 2.507812 -2.472656 C 2.828125 -2.472656 3.074219 -2.5625 3.246094 -2.734375 C 3.414062 -2.910156 3.5 -3.164062 3.5 -3.492188 C 3.5 -3.824219 3.414062 -4.078125 3.246094 -4.25 C 3.074219 -4.425781 2.828125 -4.511719 2.507812 -4.511719 L 1.648438 -4.511719 L 1.648438 -2.472656 M 0.367188 0 L 0.367188 -0.34375 L 0.984375 -0.34375 L 0.984375 -4.511719 L 0.367188 -4.511719 L 0.367188 -4.859375 L 2.664062 -4.859375 C 3.152344 -4.859375 3.539062 -4.738281 3.820312 -4.492188 C 4.105469 -4.246094 4.25 -3.910156 4.25 -3.492188 C 4.25 -3.074219 4.105469 -2.742188 3.820312 -2.496094 C 3.539062 -2.25 3.152344 -2.125 2.664062 -2.125 L 1.648438 -2.125 L 1.648438 -0.34375 L 2.398438 -0.34375 L 2.398438 0 Z "/>
</g>
<g id="glyph-0-1">
<path d="M 0.273438 0 L 0.273438 -0.34375 L 0.8125 -0.34375 L 0.8125 -4.71875 L 0.242188 -4.71875 L 0.242188 -5.066406 L 1.414062 -5.066406 L 1.414062 -2.84375 C 1.523438 -3.078125 1.667969 -3.257812 1.84375 -3.375 C 2.019531 -3.496094 2.226562 -3.554688 2.460938 -3.554688 C 2.84375 -3.554688 3.125 -3.445312 3.304688 -3.226562 C 3.484375 -3.007812 3.574219 -2.664062 3.574219 -2.199219 L 3.574219 -0.34375 L 4.109375 -0.34375 L 4.109375 0 L 2.453125 0 L 2.453125 -0.34375 L 2.972656 -0.34375 L 2.972656 -2.011719 C 2.972656 -2.433594 2.921875 -2.722656 2.816406 -2.878906 C 2.714844 -3.035156 2.53125 -3.113281 2.265625 -3.113281 C 1.988281 -3.113281 1.777344 -3.011719 1.628906 -2.808594 C 1.484375 -2.605469 1.414062 -2.3125 1.414062 -1.925781 L 1.414062 -0.34375 L 1.933594 -0.34375 L 1.933594 0 Z "/>
</g>
<g id="glyph-0-2">
<path d="M 2.652344 -1.085938 L 2.652344 -1.820312 L 1.882812 -1.820312 C 1.585938 -1.820312 1.363281 -1.753906 1.21875 -1.628906 C 1.070312 -1.5 1 -1.304688 1 -1.039062 C 1 -0.796875 1.074219 -0.605469 1.21875 -0.464844 C 1.367188 -0.324219 1.566406 -0.253906 1.820312 -0.253906 C 2.070312 -0.253906 2.269531 -0.332031 2.421875 -0.484375 C 2.578125 -0.640625 2.652344 -0.839844 2.652344 -1.085938 M 3.25 -2.160156 L 3.25 -0.34375 L 3.785156 -0.34375 L 3.785156 0 L 2.652344 0 L 2.652344 -0.375 C 2.519531 -0.214844 2.367188 -0.09375 2.195312 -0.0195312 C 2.019531 0.0546875 1.816406 0.09375 1.585938 0.09375 C 1.203125 0.09375 0.894531 -0.0078125 0.671875 -0.210938 C 0.445312 -0.414062 0.332031 -0.691406 0.332031 -1.039062 C 0.332031 -1.394531 0.460938 -1.675781 0.71875 -1.871094 C 0.976562 -2.070312 1.34375 -2.167969 1.8125 -2.167969 L 2.652344 -2.167969 L 2.652344 -2.40625 C 2.652344 -2.667969 2.574219 -2.871094 2.414062 -3.015625 C 2.253906 -3.160156 2.03125 -3.230469 1.742188 -3.230469 C 1.503906 -3.230469 1.3125 -3.179688 1.171875 -3.070312 C 1.03125 -2.960938 0.941406 -2.800781 0.90625 -2.585938 L 0.597656 -2.585938 L 0.597656 -3.289062 C 0.808594 -3.375 1.007812 -3.445312 1.207031 -3.488281 C 1.402344 -3.53125 1.59375 -3.554688 1.78125 -3.554688 C 2.261719 -3.554688 2.625 -3.4375 2.875 -3.199219 C 3.125 -2.960938 3.25 -2.613281 3.25 -2.160156 Z "/>
</g>
<g id="glyph-0-3">
<path d="M 0.375 -0.191406 L 0.375 -1 L 0.71875 -1 C 0.726562 -0.742188 0.808594 -0.546875 0.960938 -0.417969 C 1.113281 -0.292969 1.339844 -0.226562 1.640625 -0.226562 C 1.910156 -0.226562 2.113281 -0.277344 2.257812 -0.378906 C 2.398438 -0.480469 2.46875 -0.628906 2.46875 -0.820312 C 2.46875 -0.972656 2.414062 -1.09375 2.3125 -1.1875 C 2.210938 -1.28125 1.992188 -1.382812 1.660156 -1.488281 L 1.226562 -1.632812 C 0.929688 -1.730469 0.714844 -1.847656 0.582031 -1.992188 C 0.449219 -2.136719 0.378906 -2.316406 0.378906 -2.539062 C 0.378906 -2.855469 0.496094 -3.105469 0.730469 -3.285156 C 0.960938 -3.464844 1.28125 -3.554688 1.691406 -3.554688 C 1.875 -3.554688 2.066406 -3.53125 2.269531 -3.484375 C 2.46875 -3.433594 2.679688 -3.367188 2.894531 -3.273438 L 2.894531 -2.519531 L 2.546875 -2.519531 C 2.539062 -2.742188 2.460938 -2.917969 2.3125 -3.042969 C 2.167969 -3.167969 1.964844 -3.230469 1.710938 -3.230469 C 1.460938 -3.230469 1.269531 -3.1875 1.140625 -3.097656 C 1.011719 -3.011719 0.945312 -2.875 0.945312 -2.699219 C 0.945312 -2.554688 0.996094 -2.4375 1.09375 -2.347656 C 1.191406 -2.261719 1.386719 -2.171875 1.679688 -2.078125 L 2.15625 -1.933594 C 2.484375 -1.832031 2.71875 -1.703125 2.863281 -1.550781 C 3.007812 -1.398438 3.078125 -1.203125 3.078125 -0.960938 C 3.078125 -0.632812 2.953125 -0.375 2.703125 -0.1875 C 2.453125 0 2.105469 0.09375 1.667969 0.09375 C 1.441406 0.09375 1.226562 0.0703125 1.011719 0.0234375 C 0.800781 -0.0234375 0.585938 -0.0976562 0.375 -0.191406 Z "/>
</g>
<g id="glyph-0-4">
<path d="M 3.613281 -1.667969 L 1.03125 -1.667969 L 1.03125 -1.640625 C 1.03125 -1.175781 1.121094 -0.820312 1.296875 -0.585938 C 1.472656 -0.347656 1.730469 -0.226562 2.074219 -0.226562 C 2.335938 -0.226562 2.550781 -0.296875 2.71875 -0.433594 C 2.886719 -0.574219 3.003906 -0.777344 3.074219 -1.046875 L 3.554688 -1.046875 C 3.460938 -0.667969 3.28125 -0.382812 3.027344 -0.191406 C 2.769531 0 2.429688 0.09375 2.011719 0.09375 C 1.507812 0.09375 1.101562 -0.0703125 0.792969 -0.40625 C 0.484375 -0.738281 0.332031 -1.179688 0.332031 -1.730469 C 0.332031 -2.277344 0.484375 -2.71875 0.785156 -3.054688 C 1.085938 -3.386719 1.480469 -3.554688 1.972656 -3.554688 C 2.496094 -3.554688 2.898438 -3.394531 3.175781 -3.070312 C 3.457031 -2.75 3.601562 -2.28125 3.613281 -1.667969 M 2.90625 -2.011719 C 2.894531 -2.414062 2.808594 -2.71875 2.652344 -2.925781 C 2.492188 -3.128906 2.269531 -3.230469 1.972656 -3.230469 C 1.695312 -3.230469 1.480469 -3.128906 1.320312 -2.921875 C 1.164062 -2.71875 1.066406 -2.414062 1.03125 -2.011719 Z "/>
</g>
<g id="glyph-0-5">
</g>
<g id="glyph-0-6">
<path d="M 0.648438 -4.65625 C 0.902344 -4.75 1.144531 -4.824219 1.378906 -4.875 C 1.613281 -4.921875 1.832031 -4.949219 2.035156 -4.949219 C 2.507812 -4.949219 2.878906 -4.84375 3.148438 -4.640625 C 3.414062 -4.433594 3.546875 -4.148438 3.546875 -3.785156 C 3.546875 -3.492188 3.457031 -3.25 3.269531 -3.050781 C 3.085938 -2.855469 2.824219 -2.722656 2.488281 -2.652344 C 2.886719 -2.597656 3.195312 -2.453125 3.417969 -2.21875 C 3.636719 -1.984375 3.746094 -1.683594 3.746094 -1.3125 C 3.746094 -0.859375 3.59375 -0.511719 3.289062 -0.269531 C 2.984375 -0.0273438 2.546875 0.09375 1.972656 0.09375 C 1.71875 0.09375 1.472656 0.0664062 1.230469 0.0117188 C 0.988281 -0.0429688 0.746094 -0.125 0.507812 -0.234375 L 0.507812 -1.179688 L 0.871094 -1.179688 C 0.894531 -0.867188 1 -0.628906 1.1875 -0.46875 C 1.375 -0.308594 1.644531 -0.226562 1.984375 -0.226562 C 2.316406 -0.226562 2.578125 -0.324219 2.773438 -0.515625 C 2.964844 -0.707031 3.058594 -0.972656 3.058594 -1.304688 C 3.058594 -1.6875 2.960938 -1.976562 2.761719 -2.171875 C 2.566406 -2.371094 2.277344 -2.46875 1.894531 -2.46875 L 1.585938 -2.46875 L 1.585938 -2.800781 L 1.746094 -2.800781 C 2.128906 -2.800781 2.414062 -2.878906 2.601562 -3.035156 C 2.792969 -3.191406 2.886719 -3.429688 2.886719 -3.746094 C 2.886719 -4.03125 2.808594 -4.25 2.652344 -4.398438 C 2.496094 -4.550781 2.273438 -4.625 1.980469 -4.625 C 1.6875 -4.625 1.457031 -4.554688 1.296875 -4.417969 C 1.136719 -4.277344 1.039062 -4.070312 1.011719 -3.796875 L 0.648438 -3.796875 Z "/>
</g>
<g id="glyph-0-7">
<path d="M 0.691406 -0.339844 C 0.691406 -0.460938 0.734375 -0.5625 0.820312 -0.648438 C 0.902344 -0.730469 1.003906 -0.773438 1.125 -0.773438 C 1.246094 -0.773438 1.351562 -0.730469 1.433594 -0.648438 C 1.515625 -0.5625 1.558594 -0.460938 1.558594 -0.339844 C 1.558594 -0.21875 1.519531 -0.113281 1.433594 -0.03125 C 1.351562 0.0507812 1.25 0.09375 1.125 0.09375 C 1.003906 0.09375 0.898438 0.0507812 0.816406 -0.03125 C 0.734375 -0.113281 0.691406 -0.21875 0.691406 -0.339844 M 0.691406 -2.460938 C 0.691406 -2.582031 0.734375 -2.683594 0.820312 -2.769531 C 0.902344 -2.851562 1.003906 -2.894531 1.125 -2.894531 C 1.25 -2.894531 1.351562 -2.851562 1.433594 -2.769531 C 1.519531 -2.6875 1.558594 -2.585938 1.558594 -2.460938 C 1.558594 -2.335938 1.519531 -2.234375 1.433594 -2.152344 C 1.351562 -2.070312 1.25 -2.027344 1.125 -2.027344 C 1.003906 -2.027344 0.902344 -2.070312 0.820312 -2.152344 C 0.734375 -2.238281 0.691406 -2.339844 0.691406 -2.460938 Z "/>
</g>
<g id="glyph-0-8">
<path d="M 3.191406 -2.414062 C 3.34375 -2.371094 3.476562 -2.300781 3.585938 -2.203125 C 3.695312 -2.101562 3.792969 -1.964844 3.878906 -1.785156 L 4.585938 -0.34375 L 5.179688 -0.34375 L 5.179688 0 L 4.03125 0 L 3.273438 -1.546875 C 3.128906 -1.84375 2.996094 -2.039062 2.875 -2.128906 C 2.753906 -2.214844 2.585938 -2.257812 2.375 -2.257812 L 1.648438 -2.257812 L 1.648438 -0.34375 L 2.335938 -0.34375 L 2.335938 0 L 0.367188 0 L 0.367188 -0.34375 L 0.984375 -0.34375 L 0.984375 -4.511719 L 0.367188 -4.511719 L 0.367188 -4.859375 L 2.832031 -4.859375 C 3.304688 -4.859375 3.671875 -4.746094 3.925781 -4.523438 C 4.183594 -4.296875 4.3125 -3.976562 4.3125 -3.5625 C 4.3125 -3.226562 4.21875 -2.964844 4.03125 -2.773438 C 3.84375 -2.578125 3.5625 -2.460938 3.191406 -2.414062 M 1.648438 -2.605469 L 2.605469 -2.605469 C 2.933594 -2.605469 3.175781 -2.683594 3.332031 -2.839844 C 3.488281 -2.996094 3.566406 -3.234375 3.566406 -3.5625 C 3.566406 -3.886719 3.488281 -4.125 3.332031 -4.28125 C 3.175781 -4.433594 2.933594 -4.511719 2.605469 -4.511719 L 1.648438 -4.511719 Z "/>
</g>
<g id="glyph-0-9">
<path d="M 1.367188 -0.34375 L 1.933594 -0.34375 L 1.933594 0 L 0.191406 0 L 0.191406 -0.34375 L 0.769531 -0.34375 L 0.769531 -4.71875 L 0.191406 -4.71875 L 0.191406 -5.066406 L 1.367188 -5.066406 Z "/>
</g>
<g id="glyph-0-10">
<path d="M 1.648438 -0.34375 L 2.621094 -0.34375 C 3.011719 -0.34375 3.296875 -0.429688 3.476562 -0.597656 C 3.65625 -0.769531 3.746094 -1.039062 3.746094 -1.40625 C 3.746094 -1.773438 3.65625 -2.039062 3.476562 -2.207031 C 3.300781 -2.375 3.011719 -2.460938 2.621094 -2.460938 L 1.648438 -2.460938 L 1.648438 -0.34375 M 1.648438 -2.804688 L 2.472656 -2.804688 C 2.828125 -2.804688 3.089844 -2.875 3.253906 -3.011719 C 3.417969 -3.148438 3.5 -3.363281 3.5 -3.660156 C 3.5 -3.957031 3.417969 -4.171875 3.253906 -4.308594 C 3.089844 -4.445312 2.828125 -4.511719 2.472656 -4.511719 L 1.648438 -4.511719 L 1.648438 -2.804688 M 0.367188 0 L 0.367188 -0.34375 L 0.984375 -0.34375 L 0.984375 -4.511719 L 0.367188 -4.511719 L 0.367188 -4.859375 L 2.765625 -4.859375 C 3.257812 -4.859375 3.625 -4.757812 3.875 -4.558594 C 4.125 -4.359375 4.25 -4.058594 4.25 -3.660156 C 4.25 -3.371094 4.160156 -3.140625 3.988281 -2.96875 C 3.816406 -2.796875 3.5625 -2.691406 3.230469 -2.652344 C 3.644531 -2.601562 3.957031 -2.46875 4.171875 -2.257812 C 4.386719 -2.046875 4.492188 -1.761719 4.492188 -1.40625 C 4.492188 -0.925781 4.339844 -0.570312 4.035156 -0.339844 C 3.734375 -0.113281 3.257812 0 2.613281 0 Z "/>
</g>
<g id="glyph-0-11">
<path d="M 0.367188 0 L 0.367188 -0.34375 L 0.984375 -0.34375 L 0.984375 -4.511719 L 0.367188 -4.511719 L 0.367188 -4.859375 L 4.34375 -4.859375 L 4.34375 -3.777344 L 3.945312 -3.777344 L 3.945312 -4.460938 L 1.648438 -4.460938 L 1.648438 -2.832031 L 3.308594 -2.832031 L 3.308594 -3.441406 L 3.707031 -3.441406 L 3.707031 -1.824219 L 3.308594 -1.824219 L 3.308594 -2.433594 L 1.648438 -2.433594 L 1.648438 -0.34375 L 2.425781 -0.34375 L 2.425781 0 Z "/>
</g>
<g id="glyph-0-12">
<path d="M 0.617188 -0.234375 L 0.617188 -1.339844 L 0.992188 -1.335938 C 1.003906 -0.96875 1.109375 -0.695312 1.3125 -0.519531 C 1.515625 -0.34375 1.824219 -0.253906 2.238281 -0.253906 C 2.625 -0.253906 2.921875 -0.332031 3.125 -0.484375 C 3.328125 -0.636719 3.425781 -0.859375 3.425781 -1.152344 C 3.425781 -1.386719 3.367188 -1.566406 3.242188 -1.691406 C 3.121094 -1.820312 2.863281 -1.941406 2.46875 -2.0625 L 1.824219 -2.253906 C 1.363281 -2.394531 1.035156 -2.570312 0.84375 -2.78125 C 0.65625 -2.992188 0.558594 -3.277344 0.558594 -3.644531 C 0.558594 -4.058594 0.707031 -4.378906 1 -4.605469 C 1.292969 -4.835938 1.703125 -4.949219 2.234375 -4.949219 C 2.457031 -4.949219 2.707031 -4.921875 2.976562 -4.875 C 3.246094 -4.824219 3.53125 -4.753906 3.835938 -4.660156 L 3.835938 -3.625 L 3.464844 -3.625 C 3.429688 -3.96875 3.316406 -4.21875 3.125 -4.371094 C 2.929688 -4.523438 2.640625 -4.601562 2.246094 -4.601562 C 1.902344 -4.601562 1.640625 -4.53125 1.464844 -4.390625 C 1.285156 -4.25 1.195312 -4.046875 1.195312 -3.777344 C 1.195312 -3.546875 1.261719 -3.363281 1.394531 -3.230469 C 1.53125 -3.101562 1.816406 -2.96875 2.253906 -2.839844 L 2.855469 -2.660156 C 3.296875 -2.527344 3.609375 -2.359375 3.796875 -2.152344 C 3.984375 -1.949219 4.078125 -1.671875 4.078125 -1.328125 C 4.078125 -0.855469 3.929688 -0.503906 3.625 -0.265625 C 3.324219 -0.0234375 2.875 0.09375 2.277344 0.09375 C 2.011719 0.09375 1.738281 0.0664062 1.464844 0.0117188 C 1.1875 -0.0429688 0.90625 -0.125 0.617188 -0.234375 Z "/>
</g>
<g id="glyph-0-13">
<path d="M 1.164062 -4.511719 L 2.601562 -0.78125 L 4.03125 -4.511719 L 3.484375 -4.511719 L 3.484375 -4.859375 L 4.914062 -4.859375 L 4.914062 -4.511719 L 4.441406 -4.511719 L 2.703125 0 L 2.144531 0 L 0.417969 -4.511719 L -0.0664062 -4.511719 L -0.0664062 -4.859375 L 1.707031 -4.859375 L 1.707031 -4.511719 Z "/>
</g>
<g id="glyph-0-14">
<path d="M 0.367188 0 L 0.367188 -0.34375 L 0.984375 -0.34375 L 0.984375 -4.511719 L 0.332031 -4.511719 L 0.332031 -4.859375 L 1.746094 -4.859375 L 3.453125 -1.398438 L 5.160156 -4.859375 L 6.488281 -4.859375 L 6.488281 -4.511719 L 5.839844 -4.511719 L 5.839844 -0.34375 L 6.460938 -0.34375 L 6.460938 0 L 4.5625 0 L 4.5625 -0.34375 L 5.179688 -0.34375 L 5.179688 -4.101562 L 3.511719 -0.710938 L 3.054688 -0.710938 L 1.386719 -4.101562 L 1.386719 -0.34375 L 2.003906 -0.34375 L 2.003906 0 Z "/>
</g>
<g id="glyph-0-15">
<path d="M 1.648438 -0.34375 L 2.253906 -0.34375 C 2.882812 -0.34375 3.367188 -0.523438 3.707031 -0.886719 C 4.042969 -1.246094 4.210938 -1.761719 4.210938 -2.433594 C 4.210938 -3.109375 4.042969 -3.621094 3.707031 -3.976562 C 3.371094 -4.332031 2.886719 -4.511719 2.253906 -4.511719 L 1.648438 -4.511719 L 1.648438 -0.34375 M 0.367188 0 L 0.367188 -0.34375 L 0.984375 -0.34375 L 0.984375 -4.511719 L 0.367188 -4.511719 L 0.367188 -4.859375 L 2.300781 -4.859375 C 3.140625 -4.859375 3.792969 -4.644531 4.257812 -4.21875 C 4.726562 -3.792969 4.960938 -3.195312 4.960938 -2.433594 C 4.960938 -1.671875 4.726562 -1.074219 4.257812 -0.644531 C 3.789062 -0.214844 3.136719 0 2.300781 0 Z "/>
</g>
<g id="glyph-0-16">
<path d="M 3.425781 -1.039062 C 3.34375 -0.667969 3.179688 -0.386719 2.9375 -0.195312 C 2.699219 -0.00390625 2.386719 0.09375 2.003906 0.09375 C 1.5 0.09375 1.097656 -0.0703125 0.789062 -0.40625 C 0.484375 -0.738281 0.332031 -1.179688 0.332031 -1.730469 C 0.332031 -2.285156 0.484375 -2.726562 0.789062 -3.058594 C 1.097656 -3.390625 1.5 -3.554688 2.003906 -3.554688 C 2.222656 -3.554688 2.441406 -3.527344 2.660156 -3.476562 C 2.875 -3.425781 3.09375 -3.347656 3.3125 -3.246094 L 3.3125 -2.359375 L 2.964844 -2.359375 C 2.917969 -2.664062 2.820312 -2.886719 2.667969 -3.023438 C 2.515625 -3.164062 2.296875 -3.230469 2.011719 -3.230469 C 1.6875 -3.230469 1.445312 -3.105469 1.277344 -2.855469 C 1.113281 -2.605469 1.03125 -2.230469 1.03125 -1.730469 C 1.03125 -1.234375 1.113281 -0.855469 1.277344 -0.605469 C 1.441406 -0.355469 1.6875 -0.226562 2.011719 -0.226562 C 2.269531 -0.226562 2.476562 -0.296875 2.628906 -0.429688 C 2.785156 -0.5625 2.890625 -0.765625 2.945312 -1.039062 Z "/>
</g>
<g id="glyph-0-17">
<path d="M 0.648438 -4.535156 C 0.648438 -4.632812 0.683594 -4.722656 0.757812 -4.796875 C 0.828125 -4.867188 0.917969 -4.90625 1.019531 -4.90625 C 1.117188 -4.90625 1.203125 -4.867188 1.277344 -4.796875 C 1.351562 -4.722656 1.386719 -4.632812 1.386719 -4.535156 C 1.386719 -4.433594 1.351562 -4.34375 1.277344 -4.273438 C 1.207031 -4.203125 1.121094 -4.167969 1.019531 -4.167969 C 0.917969 -4.167969 0.828125 -4.203125 0.757812 -4.273438 C 0.683594 -4.34375 0.648438 -4.433594 0.648438 -4.535156 M 1.414062 -0.34375 L 1.980469 -0.34375 L 1.980469 0 L 0.242188 0 L 0.242188 -0.34375 L 0.8125 -0.34375 L 0.8125 -3.113281 L 0.242188 -3.113281 L 0.242188 -3.460938 L 1.414062 -3.460938 Z "/>
</g>
<g id="glyph-0-18">
<path d="M 2.003906 -0.226562 C 2.328125 -0.226562 2.570312 -0.355469 2.734375 -0.609375 C 2.898438 -0.863281 2.976562 -1.238281 2.976562 -1.730469 C 2.976562 -2.226562 2.898438 -2.601562 2.734375 -2.851562 C 2.570312 -3.105469 2.328125 -3.230469 2.003906 -3.230469 C 1.683594 -3.230469 1.441406 -3.105469 1.277344 -2.851562 C 1.113281 -2.601562 1.03125 -2.226562 1.03125 -1.730469 C 1.03125 -1.238281 1.113281 -0.863281 1.277344 -0.609375 C 1.445312 -0.355469 1.6875 -0.226562 2.003906 -0.226562 M 2.003906 0.09375 C 1.5 0.09375 1.097656 -0.0703125 0.789062 -0.40625 C 0.484375 -0.738281 0.332031 -1.179688 0.332031 -1.730469 C 0.332031 -2.28125 0.484375 -2.722656 0.789062 -3.054688 C 1.09375 -3.386719 1.5 -3.554688 2.003906 -3.554688 C 2.511719 -3.554688 2.917969 -3.386719 3.222656 -3.054688 C 3.527344 -2.722656 3.679688 -2.28125 3.679688 -1.730469 C 3.679688 -1.179688 3.527344 -0.738281 3.222656 -0.40625 C 2.917969 -0.0703125 2.511719 0.09375 2.003906 0.09375 Z "/>
</g>
<g id="glyph-0-19">
<path d="M 0.273438 0 L 0.273438 -0.34375 L 0.8125 -0.34375 L 0.8125 -3.113281 L 0.242188 -3.113281 L 0.242188 -3.460938 L 1.414062 -3.460938 L 1.414062 -2.84375 C 1.523438 -3.078125 1.667969 -3.257812 1.84375 -3.375 C 2.019531 -3.496094 2.226562 -3.554688 2.460938 -3.554688 C 2.84375 -3.554688 3.125 -3.445312 3.304688 -3.226562 C 3.484375 -3.007812 3.574219 -2.664062 3.574219 -2.199219 L 3.574219 -0.34375 L 4.109375 -0.34375 L 4.109375 0 L 2.453125 0 L 2.453125 -0.34375 L 2.972656 -0.34375 L 2.972656 -2.011719 C 2.972656 -2.433594 2.917969 -2.726562 2.816406 -2.882812 C 2.710938 -3.039062 2.527344 -3.117188 2.265625 -3.117188 C 1.988281 -3.117188 1.777344 -3.015625 1.628906 -2.8125 C 1.484375 -2.609375 1.414062 -2.316406 1.414062 -1.925781 L 1.414062 -0.34375 L 1.933594 -0.34375 L 1.933594 0 Z "/>
</g>
<g id="glyph-0-20">
<path d="M 2.359375 -3.460938 L 3.480469 -3.460938 L 3.480469 -0.34375 L 4.046875 -0.34375 L 4.046875 0 L 2.878906 0 L 2.878906 -0.613281 C 2.769531 -0.382812 2.625 -0.207031 2.453125 -0.0859375 C 2.273438 0.0351562 2.070312 0.09375 1.839844 0.09375 C 1.453125 0.09375 1.171875 -0.015625 0.992188 -0.234375 C 0.808594 -0.449219 0.71875 -0.792969 0.71875 -1.257812 L 0.71875 -3.113281 L 0.179688 -3.113281 L 0.179688 -3.460938 L 1.320312 -3.460938 L 1.320312 -1.445312 C 1.320312 -1.023438 1.375 -0.734375 1.476562 -0.578125 C 1.578125 -0.421875 1.761719 -0.34375 2.027344 -0.34375 C 2.304688 -0.34375 2.515625 -0.445312 2.664062 -0.652344 C 2.808594 -0.855469 2.878906 -1.152344 2.878906 -1.539062 L 2.878906 -3.113281 L 2.359375 -3.113281 Z "/>
</g>
<g id="glyph-0-21">
<path d="M 3.1875 -3.464844 L 3.1875 -2.601562 L 2.839844 -2.601562 C 2.832031 -2.773438 2.78125 -2.898438 2.699219 -2.984375 C 2.613281 -3.070312 2.492188 -3.113281 2.328125 -3.113281 C 2.03125 -3.113281 1.804688 -3.011719 1.648438 -2.804688 C 1.492188 -2.601562 1.414062 -2.308594 1.414062 -1.925781 L 1.414062 -0.34375 L 2.105469 -0.34375 L 2.105469 0 L 0.273438 0 L 0.273438 -0.34375 L 0.8125 -0.34375 L 0.8125 -3.117188 L 0.242188 -3.117188 L 0.242188 -3.460938 L 1.414062 -3.460938 L 1.414062 -2.84375 C 1.53125 -3.085938 1.679688 -3.265625 1.863281 -3.378906 C 2.050781 -3.496094 2.273438 -3.554688 2.539062 -3.554688 C 2.636719 -3.554688 2.738281 -3.546875 2.847656 -3.53125 C 2.953125 -3.515625 3.066406 -3.496094 3.1875 -3.464844 Z "/>
</g>
<g id="glyph-0-22">
<path d="M 2.867188 -4.25 L 2.550781 -4.25 C 2.550781 -4.410156 2.503906 -4.535156 2.414062 -4.617188 C 2.324219 -4.703125 2.191406 -4.746094 2.023438 -4.746094 C 1.796875 -4.746094 1.640625 -4.683594 1.550781 -4.5625 C 1.457031 -4.441406 1.414062 -4.222656 1.414062 -3.90625 L 1.414062 -3.460938 L 2.378906 -3.460938 L 2.378906 -3.113281 L 1.414062 -3.113281 L 1.414062 -0.34375 L 2.179688 -0.34375 L 2.179688 0 L 0.242188 0 L 0.242188 -0.34375 L 0.8125 -0.34375 L 0.8125 -3.113281 L 0.242188 -3.113281 L 0.242188 -3.460938 L 0.8125 -3.460938 L 0.8125 -3.894531 C 0.8125 -4.28125 0.914062 -4.570312 1.113281 -4.769531 C 1.316406 -4.964844 1.609375 -5.066406 2 -5.066406 C 2.144531 -5.066406 2.289062 -5.050781 2.433594 -5.027344 C 2.582031 -5 2.722656 -4.960938 2.867188 -4.90625 Z "/>
</g>
</g>
</defs>
<g fill="rgb(100%, 100%, 100%)" fill-opacity="1">
<use xlink:href="#glyph-0-0" x="30" y="26.1875"/>
<use xlink:href="#glyph-0-1" x="34" y="26.1875"/>
<use xlink:href="#glyph-0-2" x="38" y="26.1875"/>
<use xlink:href="#glyph-0-3" x="42" y="26.1875"/>
<use xlink:href="#glyph-0-4" x="45" y="26.1875"/>
<use xlink:href="#glyph-0-5" x="49" y="26.1875"/>
<use xlink:href="#glyph-0-6" x="51" y="26.1875"/>
<use xlink:href="#glyph-0-7" x="55" y="26.1875"/>
<use xlink:href="#glyph-0-5" x="57" y="26.1875"/>
<use xlink:href="#glyph-0-8" x="59" y="26.1875"/>
<use xlink:href="#glyph-0-4" x="64" y="26.1875"/>
<use xlink:href="#glyph-0-2" x="68" y="26.1875"/>
<use xlink:href="#glyph-0-9" x="72" y="26.1875"/>
<use xlink:href="#glyph-0-5" x="74" y="26.1875"/>
<use xlink:href="#glyph-0-8" x="76" y="26.1875"/>
<use xlink:href="#glyph-0-10" x="81" y="26.1875"/>
<use xlink:href="#glyph-0-11" x="86" y="26.1875"/>
<use xlink:href="#glyph-0-5" x="91" y="26.1875"/>
<use xlink:href="#glyph-0-12" x="93" y="26.1875"/>
<use xlink:href="#glyph-0-13" x="98" y="26.1875"/>
<use xlink:href="#glyph-0-14" x="103" y="26.1875"/>
<use xlink:href="#glyph-0-5" x="110" y="26.1875"/>
<use xlink:href="#glyph-0-15" x="112" y="26.1875"/>
<use xlink:href="#glyph-0-4" x="117" y="26.1875"/>
<use xlink:href="#glyph-0-16" x="121" y="26.1875"/>
<use xlink:href="#glyph-0-17" x="125" y="26.1875"/>
<use xlink:href="#glyph-0-3" x="127" y="26.1875"/>
<use xlink:href="#glyph-0-17" x="130" y="26.1875"/>
<use xlink:href="#glyph-0-18" x="132" y="26.1875"/>
<use xlink:href="#glyph-0-19" x="136" y="26.1875"/>
<use xlink:href="#glyph-0-5" x="140" y="26.1875"/>
<use xlink:href="#glyph-0-12" x="142" y="26.1875"/>
<use xlink:href="#glyph-0-20" x="147" y="26.1875"/>
<use xlink:href="#glyph-0-21" x="151" y="26.1875"/>
<use xlink:href="#glyph-0-22" x="154" y="26.1875"/>
<use xlink:href="#glyph-0-2" x="156" y="26.1875"/>
<use xlink:href="#glyph-0-16" x="160" y="26.1875"/>
<use xlink:href="#glyph-0-4" x="164" y="26.1875"/>
</g>
</svg>
